<svg xmlns="http://www.w3.org/2000/svg" xmlns:xlink="http://www.w3.org/1999/xlink" width="500" zoomAndPan="magnify" viewBox="0 0 375 374.999991" height="500" preserveAspectRatio="xMidYMid meet" version="1.0"><defs><clipPath id="id1"><path d="M 57.273438 1 L 337.773438 1 L 337.773438 374 L 57.273438 374 Z M 57.273438 1 " clip-rule="nonzero"/></clipPath><clipPath id="id2"><path d="M 57.273438 348.070312 L 213.273438 348.070312 L 213.273438 375 L 57.273438 375 Z M 57.273438 348.070312 " clip-rule="nonzero"/></clipPath></defs><g clip-path="url(#id1)"><path fill="#000000" d="M 190.582031 110.902344 C 190.582031 115.804688 186.699219 119.621094 181.761719 119.621094 L 89.449219 119.621094 C 84.476562 119.621094 80.628906 115.804688 80.628906 110.902344 L 80.628906 33.136719 C 80.628906 28.234375 84.480469 24.417969 89.449219 24.417969 L 181.761719 24.417969 C 186.699219 24.417969 190.582031 28.234375 190.582031 33.136719 Z M 298.195312 120.835938 C 286.515625 118.269531 282.28125 112.277344 282.28125 106.761719 L 282.28125 86.667969 C 282.28125 86.667969 290.046875 88.398438 291.90625 88.878906 C 295.695312 89.871094 298.101562 95.671875 298.195312 100.738281 C 298.320312 105.800781 298.195312 120.835938 298.195312 120.835938 Z M 321.710938 242.925781 C 321.710938 242.730469 318.46875 218.242188 318.46875 218.242188 L 318.46875 105.160156 C 318.46875 93.046875 314.492188 83.203125 306.277344 74.9375 L 253.851562 22.820312 C 250.226562 22.820312 240.21875 32.789062 240.21875 32.789062 C 240.21875 36.410156 266.238281 62.214844 266.238281 62.214844 L 265.46875 106.09375 C 265.46875 121.671875 278.140625 134.300781 293.796875 134.300781 L 300.824219 134.394531 L 298.320312 218.246094 L 301.820312 247 L 317.574219 331.84375 C 318.152344 345.625 305.542969 353.828125 295.59375 353.828125 C 286.386719 353.828125 275.703125 346.230469 275.703125 336.425781 L 275.894531 187.734375 C 275.894531 169.65625 261.199219 154.976562 243.105469 154.976562 L 211.46875 154.976562 C 213.683594 154.851562 213.777344 57.601562 213.777344 36.957031 L 213.777344 33.140625 C 213.777344 15.542969 199.402344 1.21875 181.757812 1.21875 L 89.449219 1.21875 C 71.804688 1.21875 57.429688 15.542969 57.429688 33.140625 L 57.429688 370.175781 L 213.777344 372.773438 L 213.9375 175.871094 L 243.457031 175.871094 C 250.226562 175.871094 255.746094 181.386719 255.746094 188.148438 L 255.746094 336.425781 C 255.746094 356.332031 274.355469 373.769531 295.59375 373.769531 C 315.648438 373.769531 338.109375 357.839844 338.109375 336.425781 C 337.757812 331.488281 321.710938 242.925781 321.710938 242.925781 Z M 321.710938 242.925781 " fill-opacity="1" fill-rule="nonzero"/></g><g clip-path="url(#id2)"><path fill="#000000" d="M 57.300781 348.070312 L 213.242188 348.070312 L 213.242188 375.070312 L 57.300781 375.070312 L 57.300781 348.070312 " fill-opacity="1" fill-rule="nonzero"/></g></svg>