<svg xmlns="http://www.w3.org/2000/svg" xmlns:xlink="http://www.w3.org/1999/xlink" width="500" zoomAndPan="magnify" viewBox="0 0 375 374.999991" height="500" preserveAspectRatio="xMidYMid meet" version="1.0"><path fill="#000000" d="M 249.570312 42.003906 L 242.878906 15.210938 C 242.609375 14.132812 242.253906 13.082031 241.8125 12.0625 C 241.367188 11.042969 240.84375 10.066406 240.238281 9.132812 C 239.632812 8.199219 238.953125 7.324219 238.203125 6.503906 C 237.453125 5.683594 236.636719 4.933594 235.761719 4.246094 C 234.886719 3.5625 233.960938 2.957031 232.980469 2.425781 C 232.003906 1.894531 230.992188 1.449219 229.941406 1.089844 C 228.890625 0.726562 227.816406 0.453125 226.71875 0.273438 C 225.621094 0.0898438 224.519531 0 223.40625 0 L 150.640625 0 C 149.53125 0 148.425781 0.0898438 147.328125 0.273438 C 146.234375 0.457031 145.160156 0.726562 144.109375 1.089844 C 143.058594 1.449219 142.042969 1.898438 141.066406 2.425781 C 140.089844 2.957031 139.164062 3.566406 138.285156 4.25 C 137.410156 4.933594 136.597656 5.6875 135.84375 6.507812 C 135.09375 7.328125 134.414062 8.203125 133.808594 9.136719 C 133.207031 10.070312 132.679688 11.046875 132.238281 12.066406 C 131.792969 13.089844 131.4375 14.136719 131.171875 15.21875 L 124.480469 42.003906 C 124.296875 42.742188 124.152344 43.488281 124.054688 44.242188 C 123.953125 44.996094 123.898438 45.753906 123.882812 46.515625 C 123.871094 47.273438 123.898438 48.035156 123.972656 48.789062 C 124.046875 49.546875 124.160156 50.296875 124.316406 51.042969 C 124.476562 51.785156 124.675781 52.519531 124.914062 53.242188 C 125.15625 53.964844 125.4375 54.667969 125.757812 55.359375 C 126.078125 56.046875 126.4375 56.71875 126.835938 57.367188 C 127.230469 58.015625 127.664062 58.640625 128.132812 59.238281 C 128.601562 59.839844 129.101562 60.410156 129.632812 60.953125 C 130.164062 61.496094 130.726562 62.003906 131.316406 62.484375 C 131.90625 62.964844 132.523438 63.40625 133.164062 63.816406 C 133.804688 64.226562 134.46875 64.597656 135.152344 64.929688 C 135.832031 65.261719 136.535156 65.558594 137.25 65.8125 C 137.964844 66.066406 138.695312 66.277344 139.433594 66.449219 C 140.175781 66.621094 140.925781 66.75 141.679688 66.835938 C 142.433594 66.921875 143.191406 66.964844 143.953125 66.964844 L 230.097656 66.964844 C 230.859375 66.964844 231.617188 66.921875 232.371094 66.835938 C 233.125 66.75 233.875 66.621094 234.613281 66.449219 C 235.355469 66.277344 236.082031 66.066406 236.800781 65.8125 C 237.515625 65.558594 238.214844 65.265625 238.898438 64.929688 C 239.582031 64.597656 240.242188 64.226562 240.886719 63.816406 C 241.527344 63.40625 242.140625 62.964844 242.730469 62.484375 C 243.324219 62.007812 243.882812 61.496094 244.417969 60.953125 C 244.949219 60.410156 245.449219 59.839844 245.917969 59.238281 C 246.386719 58.640625 246.816406 58.015625 247.214844 57.367188 C 247.609375 56.71875 247.96875 56.046875 248.289062 55.359375 C 248.613281 54.667969 248.894531 53.964844 249.132812 53.242188 C 249.375 52.519531 249.574219 51.789062 249.730469 51.042969 C 249.890625 50.300781 250.003906 49.546875 250.078125 48.789062 C 250.148438 48.035156 250.179688 47.273438 250.164062 46.515625 C 250.152344 45.753906 250.09375 44.996094 249.996094 44.242188 C 249.894531 43.488281 249.753906 42.742188 249.570312 42.003906 Z M 249.570312 42.003906 " fill-opacity="1" fill-rule="nonzero"/><path fill="#000000" d="M 324.492188 320.742188 C 323.898438 319.773438 323.242188 318.84375 322.53125 317.957031 C 321.820312 317.070312 321.050781 316.234375 320.234375 315.445312 C 319.414062 314.660156 318.546875 313.925781 317.632812 313.25 C 316.71875 312.574219 315.765625 311.957031 314.773438 311.40625 C 313.78125 310.851562 312.757812 310.363281 311.703125 309.941406 C 310.644531 309.515625 309.570312 309.164062 308.46875 308.878906 C 307.367188 308.59375 306.253906 308.382812 305.125 308.242188 C 304 308.101562 302.867188 308.03125 301.730469 308.035156 L 72.320312 308.035156 C 71.753906 308.035156 71.1875 308.054688 70.621094 308.089844 C 70.054688 308.125 69.488281 308.179688 68.925781 308.253906 C 68.363281 308.324219 67.804688 308.414062 67.246094 308.523438 C 66.691406 308.628906 66.136719 308.753906 65.589844 308.898438 C 65.039062 309.042969 64.496094 309.203125 63.957031 309.378906 C 63.417969 309.558594 62.886719 309.75 62.359375 309.960938 C 61.832031 310.175781 61.3125 310.402344 60.800781 310.648438 C 60.289062 310.890625 59.785156 311.152344 59.289062 311.429688 C 58.792969 311.703125 58.308594 311.996094 57.832031 312.304688 C 57.355469 312.613281 56.886719 312.933594 56.429688 313.269531 C 55.976562 313.609375 55.53125 313.960938 55.097656 314.324219 C 54.660156 314.691406 54.238281 315.070312 53.828125 315.460938 C 53.417969 315.855469 53.023438 316.261719 52.636719 316.675781 C 52.253906 317.09375 51.882812 317.523438 51.527344 317.964844 C 51.167969 318.40625 50.828125 318.859375 50.5 319.324219 C 50.171875 319.785156 49.855469 320.257812 49.558594 320.742188 C 49.261719 321.226562 48.976562 321.714844 48.710938 322.21875 C 48.445312 322.71875 48.195312 323.226562 47.957031 323.746094 C 47.722656 324.261719 47.507812 324.785156 47.304688 325.316406 C 47.101562 325.847656 46.917969 326.382812 46.75 326.925781 C 46.585938 327.46875 46.433594 328.015625 46.300781 328.570312 C 46.167969 329.121094 46.054688 329.675781 45.957031 330.234375 C 45.859375 330.796875 45.78125 331.355469 45.71875 331.921875 C 45.660156 332.484375 45.613281 333.050781 45.589844 333.621094 C 45.5625 334.1875 45.554688 334.753906 45.566406 335.320312 C 45.578125 335.890625 45.605469 336.457031 45.652344 337.023438 C 45.699219 337.589844 45.761719 338.152344 45.847656 338.714844 C 45.929688 339.277344 46.027344 339.835938 46.144531 340.390625 C 46.265625 340.945312 46.398438 341.496094 46.550781 342.042969 C 46.703125 342.589844 46.875 343.132812 47.0625 343.667969 C 47.25 344.203125 47.453125 344.734375 47.675781 345.253906 C 47.894531 345.777344 48.132812 346.292969 48.386719 346.800781 L 51.378906 352.792969 C 52.203125 354.457031 53.136719 356.054688 54.183594 357.589844 C 55.230469 359.121094 56.378906 360.574219 57.628906 361.949219 C 58.878906 363.324219 60.21875 364.601562 61.644531 365.789062 C 63.074219 366.976562 64.578125 368.058594 66.15625 369.035156 C 67.734375 370.011719 69.375 370.871094 71.074219 371.621094 C 72.769531 372.367188 74.515625 372.992188 76.300781 373.5 C 78.085938 374.003906 79.898438 374.378906 81.738281 374.632812 C 83.574219 374.882812 85.421875 375.007812 87.277344 375 L 286.769531 375 C 288.628906 375.007812 290.472656 374.882812 292.3125 374.632812 C 294.152344 374.382812 295.964844 374.003906 297.75 373.5 C 299.535156 372.996094 301.277344 372.367188 302.976562 371.621094 C 304.675781 370.871094 306.316406 370.011719 307.894531 369.035156 C 309.472656 368.058594 310.976562 366.976562 312.40625 365.789062 C 313.832031 364.601562 315.171875 363.324219 316.421875 361.949219 C 317.671875 360.578125 318.820312 359.121094 319.867188 357.589844 C 320.914062 356.054688 321.847656 354.457031 322.675781 352.792969 L 325.664062 346.800781 C 326.175781 345.785156 326.621094 344.742188 327 343.667969 C 327.378906 342.597656 327.6875 341.503906 327.925781 340.390625 C 328.164062 339.28125 328.328125 338.15625 328.421875 337.023438 C 328.515625 335.890625 328.539062 334.753906 328.488281 333.617188 C 328.4375 332.480469 328.3125 331.351562 328.117188 330.234375 C 327.921875 329.113281 327.65625 328.007812 327.316406 326.921875 C 326.980469 325.835938 326.574219 324.777344 326.101562 323.742188 C 325.628906 322.707031 325.09375 321.707031 324.492188 320.742188 Z M 324.492188 320.742188 " fill-opacity="1" fill-rule="nonzero"/><path fill="#000000" d="M 160.265625 93.75 C 159.824219 93.75 159.390625 93.707031 158.960938 93.621094 C 158.527344 93.535156 158.109375 93.410156 157.707031 93.242188 C 157.300781 93.070312 156.914062 92.867188 156.546875 92.621094 C 156.183594 92.378906 155.84375 92.097656 155.535156 91.789062 C 155.222656 91.476562 154.945312 91.140625 154.703125 90.773438 C 154.457031 90.410156 154.253906 90.023438 154.085938 89.617188 C 153.917969 89.210938 153.789062 88.792969 153.703125 88.359375 C 153.617188 87.929688 153.574219 87.492188 153.574219 87.054688 L 153.574219 60.269531 C 153.574219 59.828125 153.617188 59.394531 153.703125 58.960938 C 153.789062 58.53125 153.917969 58.113281 154.085938 57.707031 C 154.253906 57.300781 154.457031 56.914062 154.703125 56.546875 C 154.945312 56.183594 155.222656 55.84375 155.535156 55.53125 C 155.84375 55.222656 156.183594 54.945312 156.546875 54.699219 C 156.914062 54.457031 157.300781 54.25 157.707031 54.082031 C 158.109375 53.914062 158.527344 53.785156 158.960938 53.699219 C 159.390625 53.613281 159.824219 53.570312 160.265625 53.570312 C 160.703125 53.570312 161.140625 53.613281 161.570312 53.699219 C 162 53.785156 162.417969 53.914062 162.824219 54.082031 C 163.230469 54.25 163.617188 54.457031 163.980469 54.699219 C 164.347656 54.945312 164.683594 55.222656 164.996094 55.53125 C 165.304688 55.84375 165.582031 56.183594 165.828125 56.546875 C 166.070312 56.914062 166.277344 57.300781 166.445312 57.707031 C 166.613281 58.113281 166.742188 58.53125 166.828125 58.960938 C 166.914062 59.394531 166.957031 59.828125 166.957031 60.269531 L 166.957031 87.054688 C 166.957031 87.492188 166.914062 87.929688 166.828125 88.359375 C 166.742188 88.792969 166.613281 89.210938 166.445312 89.617188 C 166.277344 90.023438 166.070312 90.410156 165.828125 90.773438 C 165.582031 91.140625 165.304688 91.476562 164.996094 91.789062 C 164.683594 92.097656 164.347656 92.378906 163.980469 92.621094 C 163.617188 92.867188 163.230469 93.070312 162.824219 93.242188 C 162.417969 93.410156 162 93.535156 161.570312 93.621094 C 161.140625 93.707031 160.703125 93.75 160.265625 93.75 Z M 160.265625 93.75 " fill-opacity="1" fill-rule="nonzero"/><path fill="#000000" d="M 213.785156 93.75 C 213.34375 93.75 212.910156 93.707031 212.480469 93.621094 C 212.046875 93.535156 211.628906 93.410156 211.222656 93.242188 C 210.820312 93.070312 210.433594 92.867188 210.066406 92.621094 C 209.703125 92.378906 209.363281 92.097656 209.054688 91.789062 C 208.742188 91.476562 208.464844 91.140625 208.222656 90.773438 C 207.976562 90.410156 207.773438 90.023438 207.605469 89.617188 C 207.4375 89.210938 207.308594 88.792969 207.222656 88.359375 C 207.136719 87.929688 207.09375 87.492188 207.09375 87.054688 L 207.09375 60.269531 C 207.09375 59.828125 207.136719 59.394531 207.222656 58.960938 C 207.308594 58.53125 207.4375 58.113281 207.605469 57.707031 C 207.773438 57.300781 207.976562 56.914062 208.222656 56.546875 C 208.464844 56.183594 208.742188 55.84375 209.054688 55.53125 C 209.363281 55.222656 209.703125 54.945312 210.066406 54.699219 C 210.433594 54.457031 210.820312 54.25 211.222656 54.082031 C 211.628906 53.914062 212.046875 53.785156 212.480469 53.699219 C 212.910156 53.613281 213.34375 53.570312 213.785156 53.570312 C 214.222656 53.570312 214.660156 53.613281 215.089844 53.699219 C 215.519531 53.785156 215.9375 53.914062 216.34375 54.082031 C 216.75 54.25 217.136719 54.457031 217.5 54.699219 C 217.867188 54.945312 218.203125 55.222656 218.515625 55.53125 C 218.824219 55.84375 219.101562 56.183594 219.347656 56.546875 C 219.589844 56.914062 219.796875 57.300781 219.964844 57.707031 C 220.132812 58.113281 220.261719 58.53125 220.347656 58.960938 C 220.429688 59.394531 220.472656 59.828125 220.472656 60.269531 L 220.472656 87.054688 C 220.472656 87.492188 220.429688 87.929688 220.347656 88.359375 C 220.261719 88.792969 220.132812 89.210938 219.964844 89.617188 C 219.796875 90.023438 219.589844 90.410156 219.347656 90.773438 C 219.101562 91.140625 218.824219 91.476562 218.515625 91.789062 C 218.203125 92.097656 217.867188 92.378906 217.5 92.621094 C 217.136719 92.867188 216.75 93.070312 216.34375 93.242188 C 215.9375 93.410156 215.519531 93.535156 215.089844 93.621094 C 214.660156 93.707031 214.222656 93.75 213.785156 93.75 Z M 213.785156 93.75 " fill-opacity="1" fill-rule="nonzero"/><path fill="#000000" d="M 240.542969 133.929688 L 133.503906 133.929688 C 133.066406 133.929688 132.632812 133.972656 132.199219 134.058594 C 131.769531 134.144531 131.351562 134.273438 130.945312 134.441406 C 130.539062 134.609375 130.15625 134.816406 129.789062 135.058594 C 129.425781 135.304688 129.085938 135.582031 128.777344 135.890625 C 128.464844 136.203125 128.1875 136.539062 127.945312 136.90625 C 127.699219 137.273438 127.496094 137.65625 127.328125 138.0625 C 127.160156 138.46875 127.03125 138.886719 126.945312 139.320312 C 126.859375 139.75 126.816406 140.183594 126.816406 140.625 L 126.816406 187.5 L 247.234375 187.5 L 247.234375 140.625 C 247.234375 140.183594 247.191406 139.75 247.105469 139.320312 C 247.019531 138.886719 246.890625 138.46875 246.722656 138.0625 C 246.554688 137.65625 246.347656 137.273438 246.105469 136.90625 C 245.859375 136.539062 245.582031 136.203125 245.273438 135.890625 C 244.960938 135.582031 244.625 135.304688 244.257812 135.058594 C 243.894531 134.816406 243.507812 134.609375 243.101562 134.441406 C 242.699219 134.273438 242.28125 134.144531 241.847656 134.058594 C 241.417969 133.972656 240.984375 133.929688 240.542969 133.929688 Z M 240.542969 133.929688 " fill-opacity="1" fill-rule="nonzero"/><path fill="#000000" d="M 113.4375 294.644531 L 113.4375 140.625 C 113.4375 139.96875 113.46875 139.3125 113.535156 138.65625 C 113.601562 138.003906 113.695312 137.351562 113.824219 136.707031 C 113.953125 136.0625 114.113281 135.425781 114.304688 134.796875 C 114.496094 134.167969 114.71875 133.546875 114.96875 132.941406 C 115.222656 132.332031 115.503906 131.738281 115.8125 131.160156 C 116.121094 130.578125 116.460938 130.015625 116.824219 129.46875 C 117.191406 128.921875 117.582031 128.394531 118 127.886719 C 118.414062 127.378906 118.855469 126.890625 119.320312 126.425781 C 119.785156 125.960938 120.273438 125.519531 120.78125 125.101562 C 121.289062 124.683594 121.816406 124.292969 122.359375 123.929688 C 122.90625 123.5625 123.46875 123.222656 124.050781 122.914062 C 124.628906 122.605469 125.222656 122.324219 125.828125 122.070312 C 126.4375 121.820312 127.054688 121.597656 127.683594 121.40625 C 128.3125 121.214844 128.949219 121.054688 129.59375 120.925781 C 130.234375 120.796875 130.886719 120.699219 131.539062 120.632812 C 132.191406 120.570312 132.847656 120.535156 133.503906 120.535156 L 240.542969 120.535156 C 241.199219 120.535156 241.855469 120.570312 242.511719 120.632812 C 243.164062 120.699219 243.8125 120.796875 244.457031 120.925781 C 245.101562 121.054688 245.738281 121.214844 246.367188 121.40625 C 246.996094 121.597656 247.613281 121.820312 248.222656 122.070312 C 248.828125 122.324219 249.421875 122.605469 250 122.914062 C 250.578125 123.222656 251.144531 123.5625 251.6875 123.929688 C 252.234375 124.292969 252.761719 124.683594 253.269531 125.101562 C 253.777344 125.519531 254.265625 125.960938 254.730469 126.425781 C 255.195312 126.890625 255.632812 127.378906 256.050781 127.886719 C 256.46875 128.394531 256.859375 128.921875 257.226562 129.46875 C 257.589844 130.015625 257.925781 130.578125 258.238281 131.160156 C 258.546875 131.738281 258.828125 132.332031 259.082031 132.941406 C 259.332031 133.546875 259.554688 134.167969 259.746094 134.796875 C 259.9375 135.425781 260.09375 136.0625 260.222656 136.707031 C 260.351562 137.351562 260.449219 138.003906 260.515625 138.65625 C 260.582031 139.3125 260.613281 139.96875 260.613281 140.625 L 260.613281 294.644531 L 300.753906 294.644531 L 300.753906 140.625 C 300.75 138.652344 300.652344 136.683594 300.457031 134.71875 C 300.261719 132.757812 299.972656 130.808594 299.585938 128.871094 C 299.199219 126.9375 298.71875 125.027344 298.144531 123.136719 C 297.570312 121.25 296.90625 119.394531 296.152344 117.570312 C 295.398438 115.75 294.554688 113.96875 293.625 112.226562 C 292.695312 110.488281 291.679688 108.796875 290.585938 107.15625 C 289.488281 105.515625 288.316406 103.933594 287.066406 102.410156 C 285.816406 100.882812 284.492188 99.425781 283.097656 98.027344 C 281.703125 96.632812 280.246094 95.308594 278.722656 94.058594 C 277.199219 92.804688 275.617188 91.632812 273.980469 90.535156 C 272.339844 89.4375 270.652344 88.425781 268.914062 87.492188 C 267.175781 86.5625 265.394531 85.71875 263.574219 84.960938 C 261.753906 84.207031 259.898438 83.542969 258.015625 82.96875 C 256.128906 82.394531 254.21875 81.914062 252.285156 81.527344 C 250.351562 81.140625 248.40625 80.847656 246.445312 80.652344 C 244.480469 80.457031 242.515625 80.359375 240.542969 80.355469 L 133.503906 80.355469 C 131.535156 80.359375 129.566406 80.457031 127.605469 80.652344 C 125.644531 80.847656 123.699219 81.140625 121.765625 81.527344 C 119.832031 81.914062 117.921875 82.394531 116.035156 82.96875 C 114.148438 83.542969 112.296875 84.207031 110.476562 84.960938 C 108.652344 85.71875 106.875 86.5625 105.136719 87.492188 C 103.398438 88.425781 101.710938 89.4375 100.070312 90.535156 C 98.433594 91.632812 96.851562 92.804688 95.328125 94.058594 C 93.804688 95.308594 92.34375 96.632812 90.949219 98.027344 C 89.558594 99.425781 88.234375 100.882812 86.984375 102.410156 C 85.734375 103.933594 84.558594 105.515625 83.464844 107.15625 C 82.367188 108.796875 81.355469 110.488281 80.425781 112.226562 C 79.496094 113.96875 78.652344 115.75 77.898438 117.570312 C 77.140625 119.394531 76.476562 121.25 75.902344 123.136719 C 75.332031 125.027344 74.851562 126.9375 74.464844 128.871094 C 74.078125 130.808594 73.789062 132.757812 73.59375 134.71875 C 73.398438 136.683594 73.300781 138.652344 73.296875 140.625 L 73.296875 294.644531 Z M 113.4375 294.644531 " fill-opacity="1" fill-rule="nonzero"/><path fill="#000000" d="M 126.816406 200.894531 L 247.234375 200.894531 L 247.234375 294.644531 L 126.816406 294.644531 Z M 126.816406 200.894531 " fill-opacity="1" fill-rule="nonzero"/></svg>