<svg xmlns="http://www.w3.org/2000/svg" xmlns:xlink="http://www.w3.org/1999/xlink" width="500" zoomAndPan="magnify" viewBox="0 0 375 374.999991" height="500" preserveAspectRatio="xMidYMid meet" version="1.0"><path fill="#000000" d="M 375.011719 187.503906 C 375.011719 291.0625 291.0625 375.011719 187.507812 375.011719 C 83.949219 375.011719 0 291.0625 0 187.503906 C 0 83.949219 83.949219 -0.00390625 187.507812 -0.00390625 C 291.0625 -0.00390625 375.011719 83.949219 375.011719 187.503906 " fill-opacity="1" fill-rule="nonzero"/><path fill="#545454" d="M 360.117188 187.503906 C 360.117188 282.832031 282.835938 360.117188 187.507812 360.117188 C 92.179688 360.117188 14.898438 282.832031 14.898438 187.503906 C 14.898438 92.179688 92.179688 14.894531 187.507812 14.894531 C 282.835938 14.894531 360.117188 92.179688 360.117188 187.503906 " fill-opacity="1" fill-rule="nonzero"/><path fill="#000000" d="M 341.71875 187.503906 C 341.71875 272.671875 272.671875 341.710938 187.507812 341.710938 C 102.339844 341.710938 33.296875 272.671875 33.296875 187.503906 C 33.296875 102.339844 102.339844 33.296875 187.507812 33.296875 C 272.671875 33.296875 341.71875 102.339844 341.71875 187.503906 " fill-opacity="1" fill-rule="nonzero"/><path fill="#ffffff" d="M 115.097656 260.671875 L 107.96875 260.671875 L 107.96875 114.140625 L 115.097656 114.140625 L 115.097656 260.671875 " fill-opacity="1" fill-rule="nonzero"/><path fill="#ffffff" d="M 164.96875 260.671875 L 157.855469 260.671875 L 157.855469 114.140625 L 164.96875 114.140625 L 164.96875 260.671875 " fill-opacity="1" fill-rule="nonzero"/><path fill="#ffffff" d="M 214.855469 260.671875 L 207.734375 260.671875 L 207.734375 114.140625 L 214.855469 114.140625 L 214.855469 260.671875 " fill-opacity="1" fill-rule="nonzero"/><path fill="#ffffff" d="M 262.363281 260.671875 L 255.238281 260.671875 L 255.238281 188.078125 L 111.535156 188.078125 L 111.535156 180.957031 L 262.363281 180.957031 L 262.363281 260.671875 " fill-opacity="1" fill-rule="nonzero"/><path fill="#ffffff" d="M 113.445312 97.914062 L 110.140625 97.914062 L 110.140625 76.660156 L 104.851562 76.714844 L 104.851562 74.171875 L 113.445312 73.277344 L 113.445312 97.914062 " fill-opacity="1" fill-rule="nonzero"/><path fill="#ffffff" d="M 160.382812 84.101562 C 161.847656 84.101562 162.886719 83.738281 163.496094 83.007812 C 164.097656 82.28125 164.402344 81.257812 164.402344 79.949219 C 164.402344 78.726562 164.070312 77.738281 163.410156 76.980469 C 162.742188 76.238281 161.765625 75.859375 160.464844 75.859375 C 159.199219 75.859375 158.152344 76.25 157.320312 77.03125 C 156.492188 77.816406 156.078125 78.804688 156.078125 79.984375 L 152.941406 79.984375 L 152.890625 79.882812 C 152.832031 78.058594 153.527344 76.5 154.960938 75.214844 C 156.394531 73.921875 158.230469 73.277344 160.464844 73.277344 C 162.722656 73.277344 164.492188 73.84375 165.769531 74.988281 C 167.050781 76.128906 167.691406 77.804688 167.691406 80.019531 C 167.691406 81.144531 167.394531 82.183594 166.800781 83.121094 C 166.207031 84.054688 165.371094 84.785156 164.300781 85.304688 C 165.53125 85.792969 166.460938 86.539062 167.097656 87.53125 C 167.738281 88.53125 168.058594 89.734375 168.058594 91.140625 C 168.058594 93.371094 167.355469 95.109375 165.949219 96.375 C 164.542969 97.640625 162.714844 98.265625 160.464844 98.265625 C 158.398438 98.265625 156.574219 97.660156 155.003906 96.445312 C 153.425781 95.226562 152.667969 93.609375 152.722656 91.609375 L 152.753906 91.511719 L 155.894531 91.511719 C 155.894531 92.695312 156.316406 93.683594 157.167969 94.492188 C 158.019531 95.296875 159.121094 95.699219 160.464844 95.699219 C 161.800781 95.699219 162.851562 95.292969 163.621094 94.453125 C 164.390625 93.625 164.769531 92.550781 164.769531 91.214844 C 164.769531 89.683594 164.417969 88.550781 163.714844 87.789062 C 163.007812 87.035156 161.898438 86.660156 160.382812 86.660156 L 157.679688 86.660156 L 157.679688 84.101562 L 160.382812 84.101562 " fill-opacity="1" fill-rule="nonzero"/><path fill="#ffffff" d="M 204.519531 87.125 L 205.921875 73.621094 L 218.085938 73.621094 L 218.085938 76.542969 L 208.6875 76.542969 L 207.902344 83.542969 C 208.429688 83.144531 209.007812 82.824219 209.640625 82.574219 C 210.277344 82.324219 211 82.195312 211.816406 82.183594 C 214.058594 82.15625 215.820312 82.863281 217.089844 84.292969 C 218.363281 85.714844 219 87.683594 219 90.175781 C 219 92.613281 218.351562 94.570312 217.042969 96.050781 C 215.730469 97.527344 213.832031 98.265625 211.324219 98.265625 C 209.269531 98.265625 207.554688 97.707031 206.1875 96.578125 C 204.820312 95.460938 204.160156 93.808594 204.21875 91.628906 L 204.253906 91.53125 L 207.222656 91.53125 C 207.222656 92.851562 207.601562 93.882812 208.367188 94.609375 C 209.125 95.335938 210.113281 95.699219 211.324219 95.699219 C 212.71875 95.699219 213.792969 95.210938 214.566406 94.230469 C 215.328125 93.246094 215.714844 91.910156 215.714844 90.210938 C 215.714844 88.667969 215.328125 87.410156 214.550781 86.457031 C 213.785156 85.503906 212.710938 85.027344 211.324219 85.027344 C 210.039062 85.027344 209.097656 85.214844 208.523438 85.601562 C 207.941406 85.996094 207.519531 86.59375 207.238281 87.40625 L 204.519531 87.125 " fill-opacity="1" fill-rule="nonzero"/><path fill="#ffffff" d="M 119.1875 301.386719 L 104.101562 301.386719 L 104.101562 299.128906 L 111.726562 290.035156 C 113.082031 288.394531 114.003906 287.082031 114.488281 286.105469 C 114.96875 285.136719 115.214844 284.15625 115.214844 283.164062 C 115.214844 282.039062 114.882812 281.117188 114.226562 280.402344 C 113.574219 279.683594 112.667969 279.324219 111.511719 279.324219 C 110.074219 279.324219 108.984375 279.761719 108.234375 280.644531 C 107.480469 281.519531 107.105469 282.621094 107.105469 283.929688 L 103.9375 283.929688 L 103.902344 283.835938 C 103.84375 281.855469 104.507812 280.171875 105.886719 278.796875 C 107.261719 277.425781 109.140625 276.742188 111.511719 276.742188 C 113.675781 276.742188 115.386719 277.347656 116.628906 278.546875 C 117.878906 279.742188 118.496094 281.289062 118.496094 283.199219 C 118.496094 284.476562 118.148438 285.730469 117.441406 286.949219 C 116.738281 288.179688 115.660156 289.710938 114.214844 291.558594 L 108.089844 298.738281 L 108.125 298.816406 L 119.1875 298.816406 L 119.1875 301.386719 " fill-opacity="1" fill-rule="nonzero"/><path fill="#ffffff" d="M 155.445312 293.207031 L 162.351562 293.207031 L 162.351562 281.8125 L 162.25 281.800781 L 161.933594 282.632812 Z M 165.621094 293.207031 L 168.980469 293.207031 L 168.980469 295.78125 L 165.621094 295.78125 L 165.621094 301.386719 L 162.351562 301.386719 L 162.351562 295.78125 L 151.921875 295.78125 L 151.921875 293.925781 L 162.148438 277.09375 L 165.621094 277.09375 L 165.621094 293.207031 " fill-opacity="1" fill-rule="nonzero"/><path fill="#ffffff" d="M 211.507812 288.371094 C 210.480469 288.371094 209.589844 288.589844 208.851562 289.027344 C 208.109375 289.46875 207.546875 290.066406 207.15625 290.804688 L 207.15625 292.492188 C 207.15625 294.550781 207.601562 296.183594 208.5 297.371094 C 209.394531 298.566406 210.492188 299.164062 211.792969 299.164062 C 213.164062 299.164062 214.214844 298.644531 214.953125 297.605469 C 215.695312 296.5625 216.066406 295.207031 216.066406 293.539062 C 216.066406 291.964844 215.667969 290.707031 214.871094 289.773438 C 214.078125 288.839844 212.953125 288.371094 211.507812 288.371094 Z M 212.296875 276.742188 C 213.25 276.742188 214.195312 276.835938 215.132812 277.019531 C 216.066406 277.214844 216.839844 277.457031 217.449219 277.738281 L 216.753906 280.257812 C 216.117188 279.984375 215.449219 279.757812 214.746094 279.585938 C 214.046875 279.410156 213.230469 279.324219 212.296875 279.324219 C 210.773438 279.324219 209.53125 279.980469 208.578125 281.277344 C 207.632812 282.582031 207.15625 284.226562 207.15625 286.214844 L 207.15625 288.105469 C 207.835938 287.417969 208.640625 286.886719 209.566406 286.503906 C 210.496094 286.113281 211.492188 285.917969 212.566406 285.917969 C 214.648438 285.917969 216.308594 286.621094 217.527344 288.015625 C 218.746094 289.417969 219.351562 291.265625 219.351562 293.539062 C 219.351562 296.035156 218.671875 298.023438 217.308594 299.511719 C 215.945312 300.992188 214.105469 301.730469 211.792969 301.730469 C 209.550781 301.730469 207.667969 300.882812 206.152344 299.171875 C 204.640625 297.46875 203.886719 295.132812 203.886719 292.175781 L 203.886719 286.578125 C 203.886719 283.734375 204.695312 281.390625 206.3125 279.519531 C 207.929688 277.667969 209.925781 276.742188 212.296875 276.742188 " fill-opacity="1" fill-rule="nonzero"/><path fill="#ffffff" d="M 256.847656 288.261719 L 261.53125 288.261719 C 263.386719 288.261719 264.726562 287.921875 265.550781 287.210938 C 266.367188 286.507812 266.773438 285.429688 266.773438 283.984375 C 266.773438 282.613281 266.375 281.558594 265.578125 280.804688 C 264.78125 280.054688 263.550781 279.671875 261.867188 279.671875 L 256.847656 279.671875 Z M 256.847656 290.855469 L 256.847656 301.386719 L 253.558594 301.386719 L 253.558594 277.109375 L 261.867188 277.109375 C 264.527344 277.109375 266.558594 277.695312 267.960938 278.878906 C 269.355469 280.054688 270.058594 281.761719 270.058594 284.019531 C 270.058594 285.257812 269.738281 286.339844 269.082031 287.269531 C 268.429688 288.191406 267.484375 288.925781 266.238281 289.46875 C 267.574219 289.902344 268.53125 290.609375 269.117188 291.582031 C 269.703125 292.554688 269.992188 293.753906 269.992188 295.191406 L 269.992188 297.472656 C 269.992188 298.238281 270.078125 298.925781 270.242188 299.519531 C 270.410156 300.117188 270.703125 300.605469 271.113281 300.980469 L 271.113281 301.386719 L 267.722656 301.386719 C 267.285156 301.007812 267.011719 300.449219 266.886719 299.714844 C 266.765625 298.980469 266.707031 298.222656 266.707031 297.449219 L 266.707031 295.230469 C 266.707031 293.921875 266.320312 292.859375 265.554688 292.050781 C 264.785156 291.257812 263.757812 290.855469 262.46875 290.855469 L 256.847656 290.855469 " fill-opacity="1" fill-rule="nonzero"/><path fill="#ffffff" d="M 72.214844 59.050781 L 84.847656 72.4375 L 67.554688 90.601562 L 53.316406 78.949219 L 72.214844 59.050781 " fill-opacity="1" fill-rule="nonzero"/></svg>